# xmcd
#
# Track frame offsets:
#	150
#	14804
#	26973
#	39979
#	51714
#	62229
#	75188
#	91183
#	104152
#	119370
#	140497
#	154223
#	168194
#	185227
#	205318
#	222968
#	238649
#	258682
#	290816
#	315029
#
# Disc length: 4555 seconds
#
# Revision: 1
# Processed by: cddbd v1.4PL0 Copyright (c) Steve Scherf et al.
# Submitted via: audiograbber 1.80.04
#
DISCID=3011c914
DTITLE=Stan Webb - Webbed Feet
DYEAR=1900
DGENRE=
TTITLE0=I'd Rather Go Blind
TTITLE1=Tears In The Wind
TTITLE2=Webbed Feet
TTITLE3=Baby's Got Me Crying
TTITLE4=Andalucian Blues
TTITLE5=Maudie
TTITLE6=When The Comes Back
TTITLE7=Midnight Hour
TTITLE8=Pocket
TTITLE9=Fishing In Your River
TTITLE10=Lonesome Whistle Blues
TTITLE11=Remington Ride
TTITLE12=Mean Old World
TTITLE13=The Letter
TTITLE14=I Wanna See My Baby
TTITLE15=A Woman Is The Blues
TTITLE16=The Way It Is
TTITLE17=Rock'n'Roll Star
TTITLE18=Boogie Brothers
TTITLE19=My Love's Lying Down
EXTD=
EXTT0=
EXTT1=
EXTT2=
EXTT3=
EXTT4=
EXTT5=
EXTT6=
EXTT7=
EXTT8=
EXTT9=
EXTT10=
EXTT11=
EXTT12=
EXTT13=
EXTT14=
EXTT15=
EXTT16=
EXTT17=
EXTT18=
EXTT19=
PLAYORDER=
